<svg viewBox="0 0 24 24" xmlns="http://www.w3.org/2000/svg" id="E-Commerce-Buy--Streamline-Ultimate.svg"><path d="m16.356 16.355 2.651 6.895 1.591 -2.652 2.652 -1.591 -6.894 -2.652z" fill="none" stroke="#0071A6" strokeLinecap="round" strokeLinejoin="round" strokeWidth="1.5"></path><path d="m23.25 23.25 -2.652 -2.652" fill="none" stroke="#0071A6" strokeLinecap="round" strokeLinejoin="round" strokeWidth="1.5"></path><path d="m4.5 12 0 -7.5" fill="none" stroke="#0071A6" strokeLinecap="round" strokeLinejoin="round" strokeWidth="1.5"></path><path d="M4.5 4.5H6A1.5 1.5 0 0 1 7.5 6v0.75A1.5 1.5 0 0 1 6 8.25H4.5" fill="none" stroke="#0071A6" strokeLinecap="round" strokeLinejoin="round" strokeWidth="1.5"></path><path d="M4.5 8.25H6a1.5 1.5 0 0 1 1.5 1.5v0.75A1.5 1.5 0 0 1 6 12H4.5" fill="none" stroke="#0071A6" strokeLinecap="round" strokeLinejoin="round" strokeWidth="1.5"></path><path d="M10.5 4.5v6a1.5 1.5 0 0 0 3 0v-6" fill="none" stroke="#0071A6" strokeLinecap="round" strokeLinejoin="round" strokeWidth="1.5"></path><path d="M16.5 4.5v2.25a1.5 1.5 0 0 0 3 0V4.5" fill="none" stroke="#0071A6" strokeLinecap="round" strokeLinejoin="round" strokeWidth="1.5"></path><path d="M18 8.25 18 12" fill="none" stroke="#0071A6" strokeLinecap="round" strokeLinejoin="round" strokeWidth="1.5"></path><path d="M12.75 15.75h-9a3 3 0 0 1 -3 -3v-9a3 3 0 0 1 3 -3h16.5a3 3 0 0 1 3 3v9a3 3 0 0 1 -1.541 2.622" fill="none" stroke="#0071A6" strokeLinecap="round" strokeLinejoin="round" strokeWidth="1.5"></path></svg>